<?xml version="1.0" encoding="UTF-8"?>
<svg xmlns="http://www.w3.org/2000/svg" viewBox="0 0 120 120" width="120" height="120" role="img" aria-label="Eagle Red Logo">
  <g fill="#E31E24">
    <path d="M 55.21 10.00 L 57.95 10.00 L 58.86 10.91 L 62.51 10.91 L 63.42 12.74 L 67.08 12.74 L 67.53 14.11 L 68.90 14.57 L 70.27 15.94 L 70.27 18.68 L 72.10 19.59 L 72.10 21.42 L 73.01 22.33 L 73.01 23.24 L 74.38 23.70 L 74.84 25.98 L 76.67 26.89 L 76.67 28.72 L 79.41 33.29 L 79.41 38.77 L 76.67 41.51 L 76.21 42.88 L 73.47 42.88 L 72.10 41.51 L 72.10 37.85 L 70.73 37.40 L 69.82 35.57 L 61.60 35.57 L 61.14 36.94 L 59.77 37.40 L 58.40 38.77 L 58.40 39.68 L 57.03 40.14 L 56.58 41.51 L 55.21 41.96 L 53.84 43.33 L 53.84 44.25 L 52.01 45.16 L 52.01 46.99 L 49.27 49.73 L 49.27 51.55 L 47.44 52.47 L 47.44 57.03 L 45.62 58.86 L 45.62 61.60 L 44.70 62.51 L 44.70 66.16 L 42.88 67.08 L 42.88 74.38 L 41.96 75.30 L 41.96 80.78 L 42.88 81.69 L 42.88 82.60 L 41.51 84.89 L 38.77 84.89 L 37.85 83.97 L 36.94 83.97 L 35.57 82.60 L 35.57 81.69 L 33.74 80.78 L 33.74 77.12 L 31.00 73.47 L 31.00 52.47 L 29.18 51.55 L 29.18 37.85 L 31.00 36.94 L 31.00 35.11 L 31.92 34.20 L 33.74 29.63 L 35.11 29.18 L 36.48 27.81 L 36.48 26.89 L 38.31 25.98 L 38.77 24.61 L 41.51 23.70 L 41.96 22.33 L 43.33 20.96 L 44.25 20.96 L 44.70 19.59 L 47.44 16.85 L 45.62 15.94 L 47.44 14.11 L 47.44 13.20 L 47.90 12.74 L 51.55 12.74 L 52.47 10.91 L 54.29 10.91 L 55.21 10.00 L 30.09 49.73 L 30.55 50.18 L 31.00 49.73 L 30.55 49.27 Z" />
    <path d="M 98.13 87.63 L 96.76 89.00 L 96.30 90.37 L 94.47 88.54 L 94.02 89.00 L 94.93 89.91 L 94.93 92.65 L 94.47 93.11 L 93.56 92.19 L 93.11 92.65 L 93.11 96.30 L 92.19 97.21 L 92.19 99.04 L 91.28 99.95 L 92.65 101.32 L 93.56 101.32 L 94.93 102.69 L 94.93 103.61 L 90.37 104.52 L 91.28 105.43 L 90.37 106.35 L 90.37 107.26 L 94.47 108.63 L 94.93 110.00 L 74.84 110.00 L 76.21 109.54 L 76.67 109.09 L 76.21 108.63 L 70.73 108.63 L 70.27 107.26 L 68.90 105.89 L 64.34 105.89 L 63.42 106.80 L 54.29 106.80 L 53.38 105.89 L 46.99 105.89 L 46.07 106.80 L 45.16 105.89 L 40.59 105.89 L 39.68 104.06 L 36.94 104.06 L 35.11 102.24 L 32.37 102.24 L 31.46 101.32 L 29.18 100.87 L 29.18 99.04 L 30.09 98.13 L 30.09 97.21 L 29.18 96.30 L 29.63 94.93 L 31.00 95.39 L 31.00 99.04 L 32.37 100.41 L 34.66 99.95 L 34.66 99.04 L 36.48 96.30 L 36.03 94.93 L 34.66 95.39 L 34.20 97.67 L 32.83 96.30 L 32.83 94.47 L 30.55 93.11 L 29.63 93.11 L 28.72 94.02 L 25.07 94.02 L 24.61 96.30 L 25.07 96.76 L 25.98 94.93 L 27.35 96.30 L 25.98 97.67 L 24.16 97.67 L 22.79 96.30 L 22.79 94.47 L 21.87 93.56 L 23.24 92.19 L 24.16 92.19 L 25.07 90.37 L 40.59 90.37 L 41.51 92.19 L 42.42 92.19 L 42.88 90.82 L 44.25 90.37 L 44.70 91.74 L 46.99 93.11 L 47.90 92.19 L 51.55 92.19 L 52.47 93.11 L 57.03 93.11 L 57.95 92.19 L 60.68 92.19 L 61.60 90.37 L 71.64 90.37 L 72.56 89.45 L 78.04 89.45 L 78.95 88.54 L 83.52 88.54 L 84.43 89.45 L 85.34 89.45 L 85.80 88.08 L 85.34 87.63 L 84.43 88.54 L 83.97 88.08 L 83.97 86.26 L 83.06 85.34 L 83.06 84.43 L 81.69 83.06 L 79.86 83.06 L 78.49 79.86 L 79.86 78.49 L 81.23 78.04 L 81.23 75.30 L 82.60 73.93 L 83.52 73.93 L 84.43 74.84 L 85.80 74.38 L 85.80 46.99 L 86.26 46.53 L 88.54 46.99 L 88.54 52.47 L 89.45 53.38 L 89.45 60.68 L 90.37 61.60 L 90.37 67.08 L 91.74 67.53 L 93.11 68.90 L 93.11 69.82 L 90.82 72.10 L 89.45 72.56 L 89.45 74.38 L 89.91 74.84 L 90.82 73.93 L 91.74 73.93 L 93.11 75.30 L 93.11 79.86 L 94.02 80.78 L 94.02 82.60 L 94.93 83.52 L 94.93 84.43 L 97.21 85.80 L 98.13 84.89 L 62.51 93.11 L 60.68 94.93 L 58.86 94.93 L 57.03 98.58 L 56.12 96.76 L 55.66 99.04 L 53.38 101.32 L 52.47 100.41 L 52.01 100.87 L 52.47 102.24 L 55.21 102.24 L 56.12 101.32 L 57.95 101.32 L 58.86 102.24 L 59.77 102.24 L 60.68 101.32 L 61.60 101.32 L 62.51 103.15 L 63.42 103.15 L 65.71 100.87 L 66.16 99.50 L 67.99 99.50 L 68.90 102.24 L 69.82 101.32 L 72.56 101.32 L 73.01 100.87 L 71.64 98.58 L 68.90 99.50 L 68.45 98.13 L 67.08 96.76 L 65.71 96.30 L 65.71 94.47 L 62.51 93.11 L 87.17 96.76 L 86.71 97.21 L 87.17 98.58 L 87.63 98.13 L 87.17 96.76 L 39.68 97.67 L 39.22 98.13 L 39.22 101.78 L 39.68 102.24 L 41.51 102.24 L 42.42 101.32 L 43.33 101.32 L 44.25 102.24 L 44.70 101.78 L 44.70 99.95 L 43.33 97.67 L 41.51 101.32 L 40.14 100.87 L 40.14 98.13 L 39.68 97.67 L 75.30 98.58 L 73.93 99.95 L 74.38 100.41 L 75.30 99.50 L 76.21 100.41 L 78.04 100.41 L 78.49 99.95 L 76.21 98.58 L 62.51 99.50 L 62.97 99.95 L 62.51 101.32 L 62.05 100.87 L 62.51 99.50 Z" />
    <path d="M 48.81 62.97 L 49.27 63.42 L 49.27 66.16 L 51.10 67.99 L 51.10 68.90 L 49.27 70.73 L 49.27 80.78 L 47.90 81.23 L 46.99 80.32 L 46.07 80.32 L 45.62 78.95 L 47.44 76.21 L 47.44 64.34 L 48.81 62.97 Z" />
  </g>
</svg>
