<?xml version="1.0" encoding="UTF-8"?>
<svg xmlns="http://www.w3.org/2000/svg" viewBox="0 0 560 128" width="560" height="128" role="img" aria-label="鸡西鹏博通航 PENGBOTONGHANG">
  <defs>
    <style>
      .logo-red { fill: #E31E24; }
      .logo-blue { fill: #0B3D91; }
      .logo-black { fill: #1A1A1A; }
      .logo-white { fill: #FFFFFF; }
      .logo-text-cn {
        font-family: "Microsoft YaHei", "PingFang SC", "SimHei", "Noto Sans SC", sans-serif;
        font-size: 36px;
        font-weight: 700;
      }
      .logo-text-en {
        font-family: "Arial", "Helvetica Neue", Helvetica, sans-serif;
        font-size: 10.5px;
        font-weight: 700;
        letter-spacing: 3px;
      }
    </style>
  </defs>

  <!-- Emblem: red circle + white eagle (profile left) -->
  <g id="emblem" transform="translate(0, 4)">
    <circle class="logo-red" cx="56" cy="56" r="52"/>

    <!-- Crown and beak -->
    <path class="logo-white" d="
      M 24 42
      C 18 52 18 62 24 68
      L 16 74
      C 8 66 6 52 12 38
      C 20 20 38 8 58 8
      C 76 8 90 20 92 34
      C 94 44 88 54 78 58
      C 86 50 88 38 84 30
      C 78 18 64 10 50 12
      C 36 14 26 24 24 42
      Z"/>

    <!-- Feather bands -->
    <path class="logo-white" d="
      M 78 56
      C 64 58 48 66 34 78
      C 26 86 20 96 16 106
      L 24 108
      C 28 98 34 90 44 82
      C 56 70 68 64 82 62
      Z"/>
    <path class="logo-white" d="
      M 74 64
      C 60 66 46 74 36 84
      C 30 90 24 100 20 108
      L 28 110
      C 32 100 38 92 48 86
      C 58 76 68 70 78 70
      Z"/>
    <path class="logo-white" d="
      M 70 72
      C 58 74 46 80 38 88
      C 32 94 28 102 26 110
      L 34 112
      C 36 102 40 94 48 90
      C 58 82 66 78 74 78
      Z"/>

    <circle class="logo-red" cx="46" cy="34" r="4"/>

  <!-- Speed arcs -->
    <path class="logo-white" fill="none" stroke="#FFFFFF" stroke-width="2.4" stroke-linecap="round"
      d="M 22 84 C 32 96 44 100 56 100 C 68 100 80 96 90 84"/>
    <path class="logo-white" fill="none" stroke="#FFFFFF" stroke-width="2.4" stroke-linecap="round"
      d="M 28 92 C 36 98 46 102 56 102 C 66 102 74 98 82 92"/>
    <path class="logo-white" fill="none" stroke="#FFFFFF" stroke-width="2.4" stroke-linecap="round"
      d="M 34 100 C 40 104 48 106 56 106 C 64 106 72 104 78 100"/>

    <text class="logo-text-en logo-blue" x="56" y="122" text-anchor="middle">PENGBOTONGHANG</text>
  </g>

  <text class="logo-text-cn" x="124" y="74">
    <tspan class="logo-blue">鸡西</tspan><tspan class="logo-black">鹏博通航</tspan>
  </text>
</svg>
